<svg xmlns="http://www.w3.org/2000/svg" xmlns:xlink="http://www.w3.org/1999/xlink" width="161" height="20" viewBox="0 0 161 20">
    <defs>
        <path id="a" d="M0 19h160.253V.321H0z"/>
    </defs>
    <g fill="none" fill-rule="evenodd">
        <path fill="#FFF" d="M0 1.246v18.305h2.74v-7.58h6.138L10.7 9.051H2.786V4.108l7.478.001 1.787-2.863zM15.532 1.246v18.311H25.69l1.837-2.867-9.243-.005.033-15.439z"/>
        <g transform="translate(0 .68)">
            <path fill="#FFF" d="M71.657 15.962h4.607c1.651 0 3.313-.3 3.797-1.063.484-.768.761-2.907.761-5.516 0-2.703-.253-3.974-.689-4.707-.434-.733-2.048-1.186-3.655-1.186h-4.82v12.472zm-2.86 2.917V.573h8.041c2.543 0 4.324.559 5.342 1.678 1.018 1.115 1.526 3.077 1.526 5.872 0 4.57-.407 7.505-1.226 8.807-.818 1.299-2.663 1.949-5.535 1.949h-8.148z"/>
            <mask id="b" fill="#fff">
                <use xlink:href="#a"/>
            </mask>
            <path fill="#FFF" d="M103.242 18.878h2.051V.573h-2.051zM143.202.573v18.305h-2.049v-8.481h-10.655v8.48h-2.048V.574h2.048v8.079h10.655V.572zM100.042 16.962H90.68V.572h-2.049v18.306h10.24zM117.766 9.703l-1.092 1.746h5.637v5.692c-.749.033-2.76.114-4.613.114-2.87 0-4.635-.264-5.297-.791-.661-.526-.992-1.943-.992-4.251l-.015-2.61.023-2.428c0-2.271.297-3.69.894-4.257.595-.568 2.08-.851 4.453-.851 2.032 0 4.089.068 5.547.13v3.356h2.051l-.007-5.048c-1.299-.111-3.377-.184-7.23-.184-3.085 0-5.135.447-6.153 1.34-1.018.895-1.526 2.695-1.526 5.404l-.016 1.626.015 2.692c0 3.227.457 5.305 1.374 6.23.915.925 2.977 1.387 6.186 1.387 0 0 5.916-.004 7.358-.178 0-1.565-.008-9.112-.008-9.112l-6.59-.007zM160.253.573h-12.626L146.43 2.49h5.891v16.387h2.047V2.49h4.687zM41.936 15.614c0 .22-.177.397-.395.397h-7.9a.395.395 0 0 1-.393-.397V3.834c0-.22.177-.398.394-.398h7.899c.218 0 .395.178.395.397v11.781zM41.562.566h-7.95a3.259 3.259 0 0 0-3.25 3.267v11.781a3.258 3.258 0 0 0 3.25 3.267h7.95a3.259 3.259 0 0 0 3.25-3.267V3.834a3.26 3.26 0 0 0-3.25-3.268zM60.934 15.614c0 .22-.177.397-.395.397h-7.898a.396.396 0 0 1-.395-.397V3.834c0-.22.177-.398.395-.398h7.898c.218 0 .395.178.395.397v11.781zM60.561.566h-7.95a3.259 3.259 0 0 0-3.25 3.267v11.781a3.258 3.258 0 0 0 3.25 3.267h7.95a3.258 3.258 0 0 0 3.25-3.267V3.834a3.259 3.259 0 0 0-3.25-3.268z" mask="url(#b)"/>
        </g>
    </g>
</svg>